<svg xmlns="http://www.w3.org/2000/svg" fill="none" stroke="currentColor" stroke-width="1.5" aria-hidden="true" data-slot="icon" viewBox="0 0 24 24"><path stroke-linecap="round" stroke-linejoin="round" d="M2.25 12.76c0 1.6 1.123 2.994 2.707 3.227q1.603.236 3.238.364c.466.037.893.281 1.153.671L12 21l2.652-3.978c.26-.39.687-.634 1.153-.67q1.636-.13 3.238-.365c1.584-.233 2.707-1.626 2.707-3.228V6.741c0-1.602-1.123-2.995-2.707-3.228A48.4 48.4 0 0 0 12 3c-2.392 0-4.744.175-7.043.513C3.373 3.746 2.25 5.14 2.25 6.741z"/></svg>